<?xml version="1.0" standalone="no"?>
<!DOCTYPE svg PUBLIC "-//W3C//DTD SVG 1.1//EN" "http://www.w3.org/Graphics/SVG/1.1/DTD/svg11.dtd" >
<svg xmlns="http://www.w3.org/2000/svg">
<metadata>
This is a custom SVG webfont generated by Font Squirrel.
Copyright   : Copyright 2006 House IndustriesBrand Design Co Inc All Rights Reserved
Designer    : Tal Leming
Foundry     : House Industries
Foundry URL : httpwwwhouseindustriescom
</metadata>
<defs>
<font id="webfontrnGFj3dv" horiz-adv-x="768" >
<font-face units-per-em="2048" ascent="1556" descent="-492" />
<missing-glyph horiz-adv-x="307" />
<glyph unicode=" "  horiz-adv-x="307" />
<glyph unicode="&#x09;" horiz-adv-x="307" />
<glyph unicode="&#xa0;" horiz-adv-x="307" />
<glyph unicode="!" horiz-adv-x="417" d="M74 383l182 1030h190l-180 -1030h-192zM6 0l45 252h191l-43 -252h-193z" />
<glyph unicode="&#x22;" horiz-adv-x="512" d="M109 922l88 491h143l-88 -491h-143zM358 922l86 491h144l-86 -491h-144z" />
<glyph unicode="#" horiz-adv-x="815" d="M129 1047l23 137h127l40 229h148l-41 -229h160l41 229h145l-41 -229h129l-24 -137h-129l-56 -320h129l-24 -137h-129l-41 -230h-146l41 230h-159l-41 -230h-146l39 230h-125l23 137h127l55 320h-125zM401 1047l-55 -320h160l55 320h-160z" />
<glyph unicode="$" horiz-adv-x="761" d="M135 41l-151 152l41 229h192l-29 -166l56 -53h137l57 57l56 301l-50 49l-225 60l-125 125l74 422l156 155h82l34 193h170l-32 -193h63l154 -155l-37 -226h-195l29 162l-60 59h-124l-58 -59l-51 -283l49 -47l223 -59l127 -125l-77 -442l-156 -156h-86l-35 -195h-170 l33 195h-72z" />
<glyph unicode="%" horiz-adv-x="1185" d="M211 735l-119 119l78 440l119 119h225l119 -119l-78 -440l-119 -119h-225zM285 846h88l47 45l65 373l-45 43h-88l-45 -47l-65 -371zM696 0l-118 119l79 440l117 119h227l117 -119l-78 -440l-118 -119h-226zM770 111h90l45 45l66 370l-43 45h-90l-45 -47l-66 -370zM129 0 l825 1413h127l-825 -1413h-127z" />
<glyph unicode="&#x26;" horiz-adv-x="847" d="M156 0l-154 156l74 422l151 151l-106 107l76 421l155 156h342l156 -156l-37 -204h-195l27 145l-57 59h-152l-59 -59l-62 -344l54 -51h493l-26 -164h-95l-84 -483l-155 -156h-346zM262 158h154l59 57l76 424h-207l-78 -76l-61 -348z" />
<glyph unicode="'" horiz-adv-x="264" d="M111 922l86 491h143l-86 -491h-143z" />
<glyph unicode="(" horiz-adv-x="503" d="M180 -109l-155 156l231 1315l158 158h213l-29 -160h-98l-64 -62l-209 -1185l62 -62h78l-27 -160h-160z" />
<glyph unicode=")" horiz-adv-x="503" d="M358 1520l156 -156l-231 -1315l-160 -158h-211l27 160h100l63 62l207 1185l-59 62h-80l29 160h159z" />
<glyph unicode="*" horiz-adv-x="571" d="M221 879l-98 82l166 153l-189 47l68 129l164 -88l12 211h150l-64 -211l195 88l22 -129l-207 -47l115 -153l-125 -82l-72 180z" />
<glyph unicode="+" horiz-adv-x="628" d="M23 633l26 149h215l45 254h160l-45 -254h215l-27 -149h-215l-45 -256h-157l43 256h-215z" />
<glyph unicode="," horiz-adv-x="333" d="M-82 -203l16 90h66l18 19l15 94h-78l43 248h205l-66 -373l-80 -78h-139z" />
<glyph unicode="-" horiz-adv-x="434" d="M37 623l31 168h362l-31 -168h-362z" />
<glyph unicode="." horiz-adv-x="335" d="M-45 0l43 248h205l-45 -248h-203z" />
<glyph unicode="/" horiz-adv-x="559" d="M-96 -129l616 1669h176l-618 -1669h-174z" />
<glyph unicode="0" horiz-adv-x="837" d="M168 0l-156 156l195 1101l155 156h338l156 -156l-194 -1101l-156 -156h-338zM274 162h148l57 57l172 975l-57 59h-148l-57 -59l-172 -975z" />
<glyph unicode="1" horiz-adv-x="647" d="M-43 0l31 164h180l192 1085h-180l29 164h371l-220 -1249h170l-30 -164h-543z" />
<glyph unicode="2" horiz-adv-x="778" d="M-16 0l108 616l141 142h254l45 43l70 393l-59 59h-117l-59 -59l-31 -178h-193l43 241l154 156h309l156 -156l-96 -542l-131 -131h-256l-52 -54l-65 -362h403l-28 -168h-596z" />
<glyph unicode="3" horiz-adv-x="802" d="M131 0l-154 156l46 254h192l-35 -195l58 -57h155l58 57l65 363l-63 63h-246l26 162h259l77 78l56 317l-60 59h-153l-58 -59l-35 -194h-192l45 253l156 156h344l155 -156l-71 -395l-150 -151l107 -107l-80 -448l-156 -156h-346z" />
<glyph unicode="4" horiz-adv-x="817" d="M-6 395l22 137l312 881h174l-283 -854h268l152 854h190l-151 -854h92l-29 -164h-92l-69 -395h-191l70 395h-465z" />
<glyph unicode="5" horiz-adv-x="790" d="M152 0l-154 156l45 260h193l-35 -197l59 -57h131l58 57l88 500l-45 45h-117l-109 -109h-180l133 758h617l-31 -172h-424l-72 -410l94 95h213l127 -127l-112 -643l-156 -156h-323z" />
<glyph unicode="6" horiz-adv-x="819" d="M168 0l-156 156l195 1101l155 156h334l156 -156l-43 -239h-195l33 176l-59 59h-142l-57 -59l-76 -426l103 102h217l129 -129l-103 -585l-155 -156h-336zM385 711l-98 -99l-70 -393l57 -57h146l57 57l78 445l-47 47h-123z" />
<glyph unicode="7" horiz-adv-x="663" d="M96 0l90 514l353 727h-426l30 172h629l-24 -139l-371 -762l-88 -512h-193z" />
<glyph unicode="8" horiz-adv-x="827" d="M156 0l-154 156l74 422l151 151l-106 107l76 421l155 156h346l156 -156l-74 -397l-149 -151l106 -107l-80 -446l-155 -156h-346zM262 158h156l57 57l66 363l-64 61h-133l-78 -76l-61 -348zM381 803h135l78 78l55 317l-57 59h-156l-59 -59l-58 -334z" />
<glyph unicode="9" horiz-adv-x="821" d="M156 0l-156 156l43 245h195l-33 -182l57 -57h146l57 57l78 447l-99 -99h-219l-129 129l101 561l155 156h334l156 -156l-197 -1101l-153 -156h-336zM352 727h121l98 98l66 369l-59 59h-142l-59 -59l-74 -420z" />
<glyph unicode=":" horiz-adv-x="354" d="M-35 0l43 248h203l-43 -248h-203zM70 598l45 248h202l-43 -248h-204z" />
<glyph unicode=";" horiz-adv-x="354" d="M-72 -203l17 90h67l17 19l16 94h-80l43 248h203l-64 -373l-79 -78h-140zM70 598l45 248h202l-43 -248h-204z" />
<glyph unicode="&#x3c;" horiz-adv-x="694" d="M582 334l-535 278l31 189l635 280l-33 -184l-467 -199l397 -194z" />
<glyph unicode="=" horiz-adv-x="659" d="M39 451l27 161h528l-29 -161h-526zM96 791l29 163h528l-28 -163h-529z" />
<glyph unicode="&#x3e;" horiz-adv-x="694" d="M154 1079l536 -278l-33 -189l-632 -280l30 186l467 197l-397 194z" />
<glyph unicode="?" horiz-adv-x="718" d="M180 381l56 301l118 121h119l41 41l61 350l-57 59h-135l-57 -59l-33 -178h-193l43 241l156 156h326l155 -156l-88 -499l-133 -131h-117l-30 -29l-39 -217h-193zM115 0l43 252h192l-45 -252h-190z" />
<glyph unicode="@" horiz-adv-x="1406" d="M444 0l-133 135l131 752l136 133h192l113 -113l45 113h129l-152 -860l19 -21h80l55 56l141 821l-151 151h-568l-151 -151l-176 -1004l153 -153h598l-22 -135h-678l-240 237l195 1104l239 238h752l240 -238l-162 -926l-139 -139h-244l-119 117l-117 -117h-166zM555 137h49 l135 133l92 525l-88 90h-73l-52 -51l-114 -646z" />
<glyph unicode="A" horiz-adv-x="788" d="M-86 0l469 1413h289l-19 -1413h-190l10 367h-260l-115 -367h-184zM504 1282l-238 -752h213z" />
<glyph unicode="B" horiz-adv-x="839" d="M-4 0l250 1413h463l155 -156l-69 -391l-152 -151l107 -107l-80 -452l-156 -156h-518zM494 645h-193l-86 -487h215l57 57l66 371zM412 1257l-82 -450h200l76 76l56 315l-60 59h-190z" />
<glyph unicode="C" horiz-adv-x="790" d="M168 0l-156 156l195 1101l155 156h318l156 -156l-50 -276h-192l37 213l-58 59h-124l-60 -59l-172 -975l57 -57h125l60 57l37 217h194l-49 -280l-156 -156h-317z" />
<glyph unicode="D" horiz-adv-x="841" d="M-4 0l250 1413h461l153 -156l-194 -1101l-154 -156h-516zM217 162h209l59 57l172 975l-59 59h-188z" />
<glyph unicode="E" horiz-adv-x="710" d="M-4 0l250 1413h540l-30 -168h-348l-80 -444h321l-31 -170h-319l-82 -463h356l-30 -168h-547z" />
<glyph unicode="F" horiz-adv-x="675" d="M-4 0l250 1413h528l-29 -168h-337l-82 -467h307l-29 -168h-309l-107 -610h-192z" />
<glyph unicode="G" horiz-adv-x="813" d="M168 0l-156 156l195 1101l155 156h326l156 -156l-43 -241h-195l33 178l-57 59h-136l-57 -59l-172 -975l57 -57h136l57 57l63 361h-131l29 159h324l-103 -583l-155 -156h-326z" />
<glyph unicode="H" horiz-adv-x="860" d="M451 0l106 600h-262l-107 -600h-192l250 1413h192l-110 -622h262l110 622h193l-250 -1413h-192z" />
<glyph unicode="I" horiz-adv-x="595" d="M168 1257l29 156h483l-27 -156h-149l-195 -1101h148l-27 -156h-483l26 156h144l196 1101h-145z" />
<glyph unicode="J" horiz-adv-x="538" d="M-82 0l31 168h184l55 55l209 1190h195l-223 -1257l-156 -156h-295z" />
<glyph unicode="K" horiz-adv-x="841" d="M-4 0l250 1413h192l-133 -754l414 754h201l-336 -588l123 -825h-195l-82 635l-180 -287l-62 -348h-192z" />
<glyph unicode="L" horiz-adv-x="634" d="M438 1413l-219 -1245h318l-31 -168h-510l250 1413h192z" />
<glyph unicode="M" horiz-adv-x="1204" d="M-4 0l250 1413h299l-23 -1220l412 1220h303l-250 -1413h-182l225 1272l-432 -1272h-229l14 1272l-223 -1272h-164z" />
<glyph unicode="N" horiz-adv-x="876" d="M-4 0l250 1413h164l159 -960l172 960h168l-250 -1413h-159l-160 981l-176 -981h-168z" />
<glyph unicode="O" horiz-adv-x="837" d="M168 0l-156 156l195 1101l155 156h338l156 -156l-194 -1101l-156 -156h-338zM274 162h148l57 57l172 975l-57 59h-148l-57 -59l-172 -975z" />
<glyph unicode="P" horiz-adv-x="808" d="M-4 0l250 1413h456l156 -156l-98 -557l-156 -155h-319l-97 -545h-192zM412 1262l-101 -564h207l60 60l77 444l-57 60h-186z" />
<glyph unicode="Q" horiz-adv-x="837" d="M481 -287l-168 166l23 121h-168l-156 156l195 1101l155 156h338l156 -156l-194 -1101l-156 -156l-10 -55l108 -109zM274 162h148l57 57l172 975l-57 59h-148l-57 -59l-172 -975z" />
<glyph unicode="R" horiz-adv-x="835" d="M434 608h-139l-107 -608h-192l250 1413h459l155 -156l-84 -475l-162 -161l60 -465h80l-27 -156h-217zM412 1262l-90 -502h200l68 67l67 375l-59 60h-186z" />
<glyph unicode="S" horiz-adv-x="770" d="M139 0l-151 152l43 245h192l-33 -182l56 -53h133l57 57l64 352l-41 41l-236 64l-119 119l82 462l154 156h311l156 -156l-43 -241h-193l31 178l-57 59h-119l-59 -59l-56 -322l41 -43l234 -61l119 -121l-87 -491l-155 -156h-324z" />
<glyph unicode="T" horiz-adv-x="712" d="M793 1239h-230l-219 -1239h-190l217 1239h-234l31 174h655z" />
<glyph unicode="U" horiz-adv-x="808" d="M162 0l-156 156l223 1257h191l-209 -1190l55 -55h140l55 55l211 1190h194l-223 -1257l-156 -156h-325z" />
<glyph unicode="V" horiz-adv-x="735" d="M121 0l35 1413h192l-55 -1243l373 1243h186l-449 -1413h-282z" />
<glyph unicode="W" horiz-adv-x="1169" d="M100 0l82 1413h187l-99 -1200l336 1200h250l-57 -1200l299 1200h170l-389 -1413h-238l51 1204l-342 -1204h-250z" />
<glyph unicode="X" horiz-adv-x="753" d="M438 0l-61 621l-268 -621h-201l336 739l-70 674h199l39 -586l256 586h194l-321 -680l90 -733h-193z" />
<glyph unicode="Y" d="M176 0l82 451l-106 962h190l55 -723l314 723h184l-446 -962l-80 -451h-193z" />
<glyph unicode="Z" horiz-adv-x="681" d="M-57 0l24 145l568 1100h-367l31 168h575l-26 -145l-566 -1100h377l-31 -168h-585z" />
<glyph unicode="[" horiz-adv-x="489" d="M-16 -109l286 1629h344l-28 -160h-152l-229 -1309h149l-28 -160h-342z" />
<glyph unicode="\" horiz-adv-x="499" d="M362 -129h-169l-27 1669h168z" />
<glyph unicode="]" horiz-adv-x="489" d="M541 1520l-287 -1629h-344l29 160h149l231 1309h-149l27 160h344z" />
<glyph unicode="^" horiz-adv-x="690" d="M39 743l330 670h217l98 -670h-158l-65 553l-256 -553h-166z" />
<glyph unicode="_" horiz-adv-x="675" d="M-147 -199l20 123h686l-20 -123h-686z" />
<glyph unicode="`" horiz-adv-x="659" d="M399 1102l-141 141l18 103h78l142 -142l-19 -102h-78z" />
<glyph unicode="a" horiz-adv-x="770" d="M502 0l-92 94l4 23l-117 -117h-166l-135 135l133 752l133 133h193l112 -115l45 115h129l-153 -875l8 -8h63l-24 -137h-133zM242 137h49l135 135l92 523l-88 90h-74l-53 -51l-115 -646z" />
<glyph unicode="b" d="M-27 0l250 1413h185l-93 -520l127 127h146l135 -133l-133 -752l-135 -135h-193l-115 115l-38 -115h-136zM432 877l-145 -146l-90 -504l92 -90h73l52 51l114 637l-53 52h-43z" />
<glyph unicode="c" horiz-adv-x="724" d="M131 0l-135 135l133 752l135 133h301l135 -133l-36 -209h-185l27 156l-51 51h-99l-53 -51l-113 -646l52 -51h98l51 49l27 156h186l-37 -207l-135 -135h-301z" />
<glyph unicode="d" horiz-adv-x="770" d="M502 0l-92 94l4 23l-117 -117h-166l-135 135l133 752l133 133h178l99 -98l88 491h184l-223 -1268l8 -8h63l-24 -137h-133zM242 137h49l133 133l92 523l-90 92h-70l-53 -51l-115 -646z" />
<glyph unicode="e" horiz-adv-x="743" d="M131 0l-135 135l135 752l133 133h309l136 -133l-76 -426h-395l-48 -273l52 -51h108l51 51l21 117h184l-31 -170l-135 -135h-309zM303 834l-43 -246h211l43 246l-51 51h-107z" />
<glyph unicode="f" horiz-adv-x="524" d="M61 872l27 148h109l47 258l135 135h283l-27 -147h-166l-53 -52l-35 -194h186l-24 -148h-189l-153 -872h-185l156 872h-111z" />
<glyph unicode="g" horiz-adv-x="757" d="M66 -348l-129 127l26 145h184l-16 -90l45 -45h119l51 51l60 340l-134 -133h-137l-135 135l127 705l133 133h193l112 -115l47 115h129l-221 -1235l-131 -133h-323zM246 184h33l155 158l80 453l-88 90h-74l-51 -51l-108 -596z" />
<glyph unicode="h" horiz-adv-x="761" d="M-27 0l250 1413h185l-95 -524l131 131h121l142 -139l-132 -736l9 -8h63l-24 -137h-158l-84 82l129 735l-49 49h-33l-143 -141l-127 -725h-185z" />
<glyph unicode="i" horiz-adv-x="393" d="M76 0l-82 82l166 938h184l-154 -875l9 -8h61l-24 -137h-160zM188 1176l39 221h185l-39 -221h-185z" />
<glyph unicode="j" horiz-adv-x="366" d="M-254 -348l27 147h127l51 51l205 1170h186l-219 -1233l-133 -135h-244zM184 1176l39 221h185l-39 -221h-185z" />
<glyph unicode="k" horiz-adv-x="737" d="M-27 0l250 1413h183l-160 -909l323 516h189l-258 -391l110 -629h-182l-74 471l-153 -225l-43 -246h-185z" />
<glyph unicode="l" horiz-adv-x="397" d="M76 0l-82 82l235 1331h187l-226 -1268l11 -8h59l-24 -137h-160z" />
<glyph unicode="m" horiz-adv-x="1136" d="M-27 0l181 1020h133l-11 -137l140 137h133l119 -119l120 119h152l141 -139l-129 -736l9 -8h61l-25 -137h-159l-82 82l129 735l-49 49h-41l-121 -121l-133 -745h-185l146 817l-49 49h-35l-131 -131l-129 -735h-185z" />
<glyph unicode="n" horiz-adv-x="761" d="M-27 0l181 1020h133l-11 -137l140 137h149l142 -139l-132 -736l9 -8h63l-24 -137h-158l-84 82l129 735l-49 49h-43l-131 -131l-129 -735h-185z" />
<glyph unicode="o" d="M131 0l-135 135l133 752l135 133h324l133 -133l-133 -752l-133 -135h-324zM242 137h120l52 51l114 646l-53 51h-121l-51 -51l-115 -646z" />
<glyph unicode="p" d="M-86 -348l242 1368h133l-13 -139l142 139h170l135 -133l-133 -752l-135 -135h-183l-96 94l-78 -442h-184zM426 877l-135 -138l-90 -514l88 -88h73l52 51l114 637l-51 52h-51z" />
<glyph unicode="q" horiz-adv-x="770" d="M317 -348l84 475l-127 -127h-141l-135 135l133 752l135 133h193l112 -113l45 113h129l-241 -1368h-187zM244 137h39l147 148l90 510l-88 90h-74l-51 -51l-117 -644z" />
<glyph unicode="r" horiz-adv-x="530" d="M-27 0l181 1020h133l-11 -137l140 137h153l-30 -160h-121l-133 -133l-127 -727h-185z" />
<glyph unicode="s" horiz-adv-x="708" d="M111 0l-136 135l31 174h184l-22 -121l53 -51h101l51 51l35 201l-27 25l-215 59l-105 105l56 309l133 133h289l135 -133l-31 -176h-184l20 123l-51 51h-84l-53 -51l-35 -197l27 -25l217 -59l104 -104l-57 -314l-135 -135h-301z" />
<glyph unicode="t" horiz-adv-x="565" d="M57 872l27 148h111l47 266h184l-47 -266h211l-27 -148h-211l-119 -669l52 -49h159l-26 -154h-246l-133 135l129 737h-111z" />
<glyph unicode="u" horiz-adv-x="749" d="M483 0l-94 94l4 27l-121 -121h-135l-141 141l156 879h184l-143 -815l49 -49h30l138 137l129 727h184l-154 -875l11 -8h61l-25 -137h-133z" />
<glyph unicode="v" horiz-adv-x="688" d="M90 0l-4 1020h184l-18 -899l299 899h176l-354 -1020h-283z" />
<glyph unicode="w" horiz-adv-x="1128" d="M78 0l26 1020h177l-45 -887l270 887h250l-6 -887l233 887h160l-291 -1020h-250l2 868l-262 -868h-264z" />
<glyph unicode="x" horiz-adv-x="700" d="M393 0l-71 424l-218 -424h-196l287 522l-95 498h183l63 -418l207 418h188l-270 -485l100 -535h-178z" />
<glyph unicode="y" horiz-adv-x="688" d="M86 0v1020h184l-20 -903l301 903h176l-428 -1227l-141 -141h-279l27 147h176l74 74l43 127h-113z" />
<glyph unicode="z" horiz-adv-x="589" d="M-86 0l25 127l454 750h-315l24 143h521l-23 -125l-457 -750h328l-25 -145h-532z" />
<glyph unicode="{" horiz-adv-x="526" d="M203 -109l-156 156l96 545l-47 47h-84l29 166h88l61 63l89 494l157 158h213l-28 -160h-99l-63 -62l-78 -440l-137 -137l96 -96l-90 -512l61 -62h80l-29 -160h-159z" />
<glyph unicode="|" horiz-adv-x="444" d="M2 -129l295 1669h176l-297 -1669h-174z" />
<glyph unicode="}" horiz-adv-x="526" d="M356 1520l156 -156l-90 -512l47 -47h84l-31 -166h-86l-63 -64l-92 -526l-158 -158h-213l29 160h98l63 62l84 473l135 139l-96 96l86 477l-61 62h-78l27 160h159z" />
<glyph unicode="~" horiz-adv-x="749" d="M127 1116l31 174l123 123h151l178 -176h21l45 47l24 129h140l-31 -176l-121 -121h-153l-177 176h-20l-47 -47l-25 -129h-139z" />
<glyph unicode="&#xa1;" horiz-adv-x="417" d="M381 1030l-180 -1030h-193l180 1030h193zM449 1413l-46 -252h-190l43 252h193z" />
<glyph unicode="&#xa2;" horiz-adv-x="735" d="M156 147l-156 156l143 809l156 156h82l31 166h176l-31 -166h68l153 -156l-43 -256h-194l34 193l-59 59h-133l-59 -59l-119 -680l57 -60h133l58 60l34 194h193l-45 -260l-156 -156h-86l-31 -167h-176l31 167h-61z" />
<glyph unicode="&#xa3;" horiz-adv-x="790" d="M47 606l29 168h92l86 483l156 156h288l156 -156l-47 -266h-193l35 203l-57 59h-98l-58 -59l-76 -420h269l-29 -168h-270l-62 -350l-88 -88h477l-28 -168h-684l28 170l109 109l57 327h-92z" />
<glyph unicode="&#xa5;" d="M25 475l22 113h195l-88 825h192l51 -717l310 717h186l-381 -825h195l-21 -113h-227l-10 -24l-17 -86h236l-21 -113h-233l-45 -252h-193l45 252h-235l20 113h236l16 86l-4 24h-229z" />
<glyph unicode="&#xa7;" horiz-adv-x="784" d="M106 -195l-151 152l47 262h193l-35 -199l55 -53h141l58 58l65 358h-364l-70 70l16 82h637l-102 -574l-156 -156h-334zM88 688l100 569l156 156h324l155 -156l-45 -258h-194l34 195l-59 59h-131l-57 -59l-62 -352h361l69 -70l-14 -84h-637z" />
<glyph unicode="&#xa8;" horiz-adv-x="659" d="M190 1126l31 181h137l-30 -181h-138zM451 1126l32 181h138l-31 -181h-139z" />
<glyph unicode="&#xa9;" horiz-adv-x="1206" d="M430 244l-96 96l129 733l96 96h248l96 -96l-43 -235h-151l32 180l-30 31h-76l-31 -31l-110 -625l28 -26h80l29 26l31 180h151l-41 -233l-96 -96h-246zM195 0l-183 182l187 1049l182 182h663l181 -182l-187 -1049l-180 -182h-663zM283 139h505l93 94l168 949l-95 92h-505 l-93 -92l-168 -949z" />
<glyph unicode="&#xaa;" horiz-adv-x="587" d="M496 707l-72 71l-72 -71h-151l-115 114l84 477l115 115h172l69 -70l27 70h100l-102 -584l12 -12h37l-20 -110h-84zM279 817h67l74 74l63 362l-49 50h-84l-43 -43l-71 -402z" />
<glyph unicode="&#xab;" horiz-adv-x="653" d="M160 307l-119 408l262 407h162l-268 -415l118 -400h-155zM420 307l-121 408l262 407h164l-268 -415l118 -400h-155z" />
<glyph unicode="&#xad;" horiz-adv-x="434" d="M37 623l31 168h362l-31 -168h-362z" />
<glyph unicode="&#xae;" horiz-adv-x="780" d="M242 600l-129 129l96 555l129 129h342l129 -129l-98 -555l-129 -129h-340zM283 678h262l86 84l86 495l-80 80h-262l-84 -86l-86 -495zM285 764l86 487h192l68 -67l-29 -162l-61 -61l20 -138h25l-11 -59h-88l-24 186h-64l-32 -186h-82zM442 1184l-30 -166h86l26 26l19 113 l-25 27h-76z" />
<glyph unicode="&#xaf;" horiz-adv-x="659" d="M209 1157l20 121h381l-20 -121h-381z" />
<glyph unicode="&#xb0;" horiz-adv-x="466" d="M203 944l-92 92l49 285l92 92h211l92 -92l-49 -285l-92 -92h-211zM262 1040h105l32 33l35 211l-33 33h-104l-33 -33l-35 -211z" />
<glyph unicode="&#xb2;" horiz-adv-x="557" d="M68 688l53 297l104 96h199l31 33l26 143l-45 43h-78l-45 -45l-14 -75h-145l22 125l109 108h239l109 -108l-43 -240l-101 -94h-194l-37 -37l-25 -127h308l-21 -119h-452z" />
<glyph unicode="&#xb3;" horiz-adv-x="577" d="M178 688l-108 109l20 116h143l-12 -71l43 -43h103l43 45l24 119l-41 41h-153l16 100h162l49 49l18 107l-45 43h-100l-45 -43l-12 -74h-146l21 119l108 108h262l109 -108l-29 -158l-96 -96l68 -68l-33 -186l-109 -109h-260z" />
<glyph unicode="&#xb4;" horiz-adv-x="659" d="M319 1102l19 102l141 142h103l-19 -103l-141 -141h-103z" />
<glyph unicode="&#xb6;" horiz-adv-x="1134" d="M362 -197l29 162h281l57 55l219 1237h-137l-195 -1097h-423l-156 155l168 942l153 156h809l-258 -1454l-155 -156h-392zM299 317h154l165 945h-174l-57 -60l-145 -825z" />
<glyph unicode="&#xb7;" horiz-adv-x="354" d="M70 598l45 248h202l-43 -248h-204z" />
<glyph unicode="&#xb8;" horiz-adv-x="659" d="M78 -330l12 82h154l14 17l12 65l-14 14h-78l-24 25l20 127h102l-14 -74h68l63 -63l-22 -133l-60 -60h-233z" />
<glyph unicode="&#xb9;" horiz-adv-x="473" d="M49 688l23 117h127l86 491h-125l20 117h271l-107 -608h123l-21 -117h-397z" />
<glyph unicode="&#xba;" horiz-adv-x="587" d="M201 707l-115 114l84 477l115 115h241l115 -115l-84 -477l-115 -114h-241zM279 817h100l43 43l70 400l-43 43h-99l-43 -43l-71 -400z" />
<glyph unicode="&#xbb;" horiz-adv-x="653" d="M272 1122l119 -405l-262 -410h-162l266 416l-118 399h157zM530 1122l121 -405l-262 -410h-164l269 416l-119 399h155z" />
<glyph unicode="&#xbc;" horiz-adv-x="1236" d="M586 174l14 84l193 467h133l-166 -438h174l78 438h145l-78 -438h62l-19 -113h-63l-31 -174h-145l30 174h-327zM129 0l825 1413h125l-825 -1413h-125zM49 688l23 117h127l86 491h-125l20 117h271l-107 -608h123l-21 -117h-397z" />
<glyph unicode="&#xbd;" horiz-adv-x="1198" d="M49 688l23 117h127l86 491h-125l20 117h271l-107 -608h123l-21 -117h-397zM129 0l825 1413h125l-825 -1413h-125zM582 0l53 297l104 96h199l31 33l26 143l-45 43h-78l-45 -45l-14 -75h-145l22 124l109 109h239l109 -109l-43 -239l-100 -94h-195l-37 -37l-24 -127h307 l-21 -119h-452z" />
<glyph unicode="&#xbe;" horiz-adv-x="1290" d="M639 174l14 84l193 467h133l-166 -438h174l78 438h145l-77 -438h61l-18 -113h-64l-31 -174h-145l31 174h-328zM178 688l-108 109l20 116h143l-12 -71l43 -43h103l43 45l24 119l-41 41h-153l16 100h162l49 49l18 107l-45 43h-100l-45 -43l-12 -74h-146l21 119l108 108h262 l109 -108l-29 -158l-96 -96l68 -68l-33 -186l-109 -109h-260zM182 0l826 1413h125l-826 -1413h-125z" />
<glyph unicode="&#xbf;" horiz-adv-x="718" d="M561 1032l-55 -301l-119 -121h-119l-41 -41l-61 -350l57 -59h135l58 59l33 178h192l-43 -241l-156 -156h-325l-156 156l88 499l133 131h117l31 29l39 217h192zM629 1413l-45 -252h-193l45 252h193z" />
<glyph unicode="&#xc0;" horiz-adv-x="788" d="M-86 0l469 1413h289l-19 -1413h-190l10 367h-260l-115 -367h-184zM504 1282l-238 -752h213zM545 1499l-142 141l19 103h78l141 -141l-18 -103h-78z" />
<glyph unicode="&#xc1;" horiz-adv-x="788" d="M-86 0l469 1413h289l-19 -1413h-190l10 367h-260l-115 -367h-184zM504 1282l-238 -752h213zM465 1499l18 103l142 141h102l-18 -103l-142 -141h-102z" />
<glyph unicode="&#xc2;" horiz-adv-x="788" d="M-86 0l469 1413h289l-19 -1413h-190l10 367h-260l-115 -367h-184zM504 1282l-238 -752h213zM342 1509l14 90l131 132h150l129 -132l-16 -90h-62l-127 127h-8l-127 -127h-84z" />
<glyph unicode="&#xc3;" horiz-adv-x="788" d="M-86 0l469 1413h289l-19 -1413h-190l10 367h-260l-115 -367h-184zM504 1282l-238 -752h213zM317 1520l21 114l82 82h117l96 -96h22l29 29l10 67h109l-21 -117l-80 -79h-116l-97 96h-22l-27 -27l-14 -69h-109z" />
<glyph unicode="&#xc4;" horiz-adv-x="788" d="M-86 0l469 1413h289l-19 -1413h-190l10 367h-260l-115 -367h-184zM504 1282l-238 -752h213zM344 1524l31 180h137l-31 -180h-137zM604 1524l33 180h137l-31 -180h-139z" />
<glyph unicode="&#xc5;" horiz-adv-x="788" d="M-86 0l469 1413h289l-19 -1413h-190l10 367h-260l-115 -367h-184zM504 1282l-238 -752h213zM463 1489l-68 67l23 132l67 67h170l70 -67l-23 -132l-69 -67h-170zM508 1552h86l27 27l16 86l-25 25h-86l-26 -27l-17 -84z" />
<glyph unicode="&#xc6;" horiz-adv-x="1056" d="M98 0h-184l467 1413h749l-28 -168h-436l-7 -444h336l-30 -170h-308l-6 -463h267l-29 -168h-432l12 367h-256zM475 530l27 752l-238 -752h211z" />
<glyph unicode="&#xc7;" horiz-adv-x="790" d="M168 0l-156 156l195 1101l155 156h318l156 -156l-50 -276h-192l37 213l-58 59h-124l-60 -59l-172 -975l57 -57h125l60 57l37 217h194l-49 -280l-156 -156h-141l-14 -74h67l64 -63l-23 -133l-59 -60h-234l13 82h153l15 17l12 65l-14 14h-78l-25 25l21 127h-74z" />
<glyph unicode="&#xc8;" horiz-adv-x="710" d="M-4 0l250 1413h540l-30 -168h-348l-80 -444h321l-31 -170h-319l-82 -463h356l-30 -168h-547zM524 1499l-141 141l18 103h78l142 -141l-19 -103h-78z" />
<glyph unicode="&#xc9;" horiz-adv-x="710" d="M-4 0l250 1413h540l-30 -168h-348l-80 -444h321l-31 -170h-319l-82 -463h356l-30 -168h-547zM444 1499l19 103l141 141h103l-19 -103l-141 -141h-103z" />
<glyph unicode="&#xca;" horiz-adv-x="710" d="M322 1509l14 90l131 132h149l129 -132l-16 -90h-61l-127 127h-9l-126 -127h-84zM-4 0l250 1413h540l-30 -168h-348l-80 -444h321l-31 -170h-319l-82 -463h356l-30 -168h-547z" />
<glyph unicode="&#xcb;" horiz-adv-x="710" d="M326 1524l30 180h138l-31 -180h-137zM586 1524l32 180h138l-31 -180h-139zM-4 0l250 1413h540l-30 -168h-348l-80 -444h321l-31 -170h-319l-82 -463h356l-30 -168h-547z" />
<glyph unicode="&#xcc;" horiz-adv-x="595" d="M168 1257l29 156h483l-27 -156h-149l-195 -1101h148l-27 -156h-483l26 156h144l196 1101h-145zM457 1499l-142 141l19 103h78l141 -141l-18 -103h-78z" />
<glyph unicode="&#xcd;" horiz-adv-x="595" d="M168 1257l29 156h483l-27 -156h-149l-195 -1101h148l-27 -156h-483l26 156h144l196 1101h-145zM377 1499l18 103l142 141h102l-18 -103l-142 -141h-102z" />
<glyph unicode="&#xce;" horiz-adv-x="595" d="M168 1257l29 156h483l-27 -156h-149l-195 -1101h148l-27 -156h-483l26 156h144l196 1101h-145zM256 1509l14 90l131 132h150l129 -132l-16 -90h-62l-127 127h-8l-127 -127h-84z" />
<glyph unicode="&#xcf;" horiz-adv-x="595" d="M168 1257l29 156h483l-27 -156h-149l-195 -1101h148l-27 -156h-483l26 156h144l196 1101h-145zM258 1524l31 180h137l-31 -180h-137zM518 1524l33 180h137l-31 -180h-139z" />
<glyph unicode="&#xd0;" horiz-adv-x="841" d="M14 618l31 170h90l111 625h461l153 -156l-194 -1101l-154 -156h-516l108 618h-90zM217 162h209l59 57l172 975l-59 59h-188l-82 -465h141l-29 -170h-143z" />
<glyph unicode="&#xd1;" horiz-adv-x="876" d="M-4 0l250 1413h164l159 -960l172 960h168l-250 -1413h-159l-160 981l-176 -981h-168zM367 1520l20 114l82 82h117l96 -96h23l28 29l10 67h109l-21 -117l-79 -79h-117l-96 96h-23l-27 -27l-14 -69h-108z" />
<glyph unicode="&#xd2;" horiz-adv-x="837" d="M168 0l-156 156l195 1101l155 156h338l156 -156l-194 -1101l-156 -156h-338zM274 162h148l57 57l172 975l-57 59h-148l-57 -59l-172 -975zM551 1499l-141 141l18 103h78l141 -141l-18 -103h-78z" />
<glyph unicode="&#xd3;" horiz-adv-x="837" d="M471 1499l18 103l142 141h102l-18 -103l-142 -141h-102zM168 0l-156 156l195 1101l155 156h338l156 -156l-194 -1101l-156 -156h-338zM274 162h148l57 57l172 975l-57 59h-148l-57 -59l-172 -975z" />
<glyph unicode="&#xd4;" horiz-adv-x="837" d="M350 1509l15 90l131 132h149l129 -132l-16 -90h-62l-127 127h-8l-127 -127h-84zM168 0l-156 156l195 1101l155 156h338l156 -156l-194 -1101l-156 -156h-338zM274 162h148l57 57l172 975l-57 59h-148l-57 -59l-172 -975z" />
<glyph unicode="&#xd5;" horiz-adv-x="837" d="M168 0l-156 156l195 1101l155 156h338l156 -156l-194 -1101l-156 -156h-338zM274 162h148l57 57l172 975l-57 59h-148l-57 -59l-172 -975zM326 1520l20 114l82 82h117l96 -96h23l28 29l10 67h109l-20 -117l-80 -79h-117l-96 96h-23l-26 -27l-15 -69h-108z" />
<glyph unicode="&#xd6;" horiz-adv-x="837" d="M352 1524l31 180h137l-31 -180h-137zM612 1524l33 180h137l-30 -180h-140zM168 0l-156 156l195 1101l155 156h338l156 -156l-194 -1101l-156 -156h-338zM274 162h148l57 57l172 975l-57 59h-148l-57 -59l-172 -975z" />
<glyph unicode="&#xd7;" horiz-adv-x="716" d="M180 403l-108 111l192 193l-192 192l108 111l193 -195l194 195l109 -111l-193 -192l193 -193l-109 -111l-194 193z" />
<glyph unicode="&#xd8;" horiz-adv-x="837" d="M168 0l-156 156l195 1101l155 156h338l156 -156l-194 -1101l-156 -156h-338zM211 225l389 1037h-158l-59 -60zM268 154h158l59 59l172 975z" />
<glyph unicode="&#xd9;" horiz-adv-x="808" d="M162 0l-156 156l223 1257h191l-209 -1190l55 -55h140l55 55l211 1190h194l-223 -1257l-156 -156h-325zM567 1499l-141 141l18 103h78l142 -141l-19 -103h-78z" />
<glyph unicode="&#xda;" horiz-adv-x="808" d="M487 1499l19 103l141 141h103l-19 -103l-141 -141h-103zM162 0l-156 156l223 1257h191l-209 -1190l55 -55h140l55 55l211 1190h194l-223 -1257l-156 -156h-325z" />
<glyph unicode="&#xdb;" horiz-adv-x="808" d="M367 1509l14 90l131 132h150l129 -132l-17 -90h-61l-127 127h-8l-127 -127h-84zM162 0l-156 156l223 1257h191l-209 -1190l55 -55h140l55 55l211 1190h194l-223 -1257l-156 -156h-325z" />
<glyph unicode="&#xdc;" horiz-adv-x="808" d="M369 1524l30 180h138l-31 -180h-137zM629 1524l33 180h137l-31 -180h-139zM162 0l-156 156l223 1257h191l-209 -1190l55 -55h140l55 55l211 1190h194l-223 -1257l-156 -156h-325z" />
<glyph unicode="&#xdd;" d="M176 0l82 451l-106 962h190l55 -723l314 723h184l-446 -962l-80 -451h-193zM465 1499l18 103l142 141h102l-18 -103l-142 -141h-102z" />
<glyph unicode="&#xde;" horiz-adv-x="817" d="M-4 0l250 1413h192l-45 -248h264l156 -155l-96 -551l-156 -154h-319l-54 -305h-192zM553 1012h-186l-99 -553h207l60 57l75 438z" />
<glyph unicode="&#xdf;" horiz-adv-x="811" d="M-27 0l226 1278l135 135h373l133 -135l-70 -397l-139 -140l98 -98l-86 -508l-135 -135h-264l26 139h146l51 54l76 423l-56 58h-122l26 141h119l80 80l57 328l-53 51h-170l-51 -51l-215 -1223h-185z" />
<glyph unicode="&#xe0;" horiz-adv-x="770" d="M502 0l-92 94l4 23l-117 -117h-166l-135 135l133 752l133 133h193l112 -115l45 115h129l-153 -875l8 -8h63l-24 -137h-133zM242 137h49l135 135l92 523l-88 90h-74l-53 -51l-115 -646zM465 1102l-141 141l18 103h78l141 -142l-18 -102h-78z" />
<glyph unicode="&#xe1;" horiz-adv-x="770" d="M502 0l-92 94l4 23l-117 -117h-166l-135 135l133 752l133 133h193l112 -115l45 115h129l-153 -875l8 -8h63l-24 -137h-133zM242 137h49l135 135l92 523l-88 90h-74l-53 -51l-115 -646zM385 1102l18 102l142 142h102l-18 -103l-142 -141h-102z" />
<glyph unicode="&#xe2;" horiz-adv-x="770" d="M502 0l-92 94l4 23l-117 -117h-166l-135 135l133 752l133 133h193l112 -115l45 115h129l-153 -875l8 -8h63l-24 -137h-133zM242 137h49l135 135l92 523l-88 90h-74l-53 -51l-115 -646zM264 1112l15 90l131 131h149l129 -131l-16 -90h-62l-127 127h-8l-127 -127h-84z" />
<glyph unicode="&#xe3;" horiz-adv-x="770" d="M502 0l-92 94l4 23l-117 -117h-166l-135 135l133 752l133 133h193l112 -115l45 115h129l-153 -875l8 -8h63l-24 -137h-133zM242 137h49l135 135l92 523l-88 90h-74l-53 -51l-115 -646zM240 1122l20 115l82 82h117l96 -96h23l28 28l10 68h109l-20 -117l-80 -80h-117 l-96 97h-23l-27 -27l-14 -70h-108z" />
<glyph unicode="&#xe4;" horiz-adv-x="770" d="M502 0l-92 94l4 23l-117 -117h-166l-135 135l133 752l133 133h193l112 -115l45 115h129l-153 -875l8 -8h63l-24 -137h-133zM242 137h49l135 135l92 523l-88 90h-74l-53 -51l-115 -646zM268 1126l31 181h137l-30 -181h-138zM528 1126l33 181h137l-30 -181h-140z" />
<glyph unicode="&#xe5;" horiz-adv-x="770" d="M502 0l-92 94l4 23l-117 -117h-166l-135 135l133 752l133 133h193l112 -115l45 115h129l-153 -875l8 -8h63l-24 -137h-133zM242 137h49l135 135l92 523l-88 90h-74l-53 -51l-115 -646zM385 1092l-68 67l23 131l68 68h170l69 -68l-22 -131l-70 -67h-170zM430 1155h86 l27 27l16 86l-24 24h-86l-27 -26l-16 -84z" />
<glyph unicode="&#xe6;" horiz-adv-x="1130" d="M113 0l-136 135l56 307l143 144h287l45 248l-53 51h-99l-51 -51l-22 -119h-183l31 172l135 133h262l80 -80l80 80h273l133 -133l-74 -426h-397l-48 -273l54 -51h106l51 51l23 117h182l-30 -170l-134 -135h-272l-90 88l-86 -88h-266zM328 137l67 68l45 256h-168l-65 -66 l-35 -207l51 -51h105zM690 834l-45 -248h213l43 248l-53 51h-107z" />
<glyph unicode="&#xe7;" horiz-adv-x="724" d="M131 0l-135 135l133 752l135 133h301l135 -133l-36 -209h-185l27 156l-51 51h-99l-53 -51l-113 -646l52 -51h98l51 49l27 156h186l-37 -207l-135 -135h-123l-14 -74h67l64 -63l-23 -133l-59 -60h-233l12 82h153l15 17l12 65l-14 14h-78l-25 25l21 127h-76z" />
<glyph unicode="&#xe8;" horiz-adv-x="743" d="M131 0l-135 135l135 752l133 133h309l136 -133l-76 -426h-395l-48 -273l52 -51h108l51 51l21 117h184l-31 -170l-135 -135h-309zM303 834l-43 -246h211l43 246l-51 51h-107zM444 1102l-141 141l19 103h77l142 -142l-19 -102h-78z" />
<glyph unicode="&#xe9;" horiz-adv-x="743" d="M131 0l-135 135l135 752l133 133h309l136 -133l-76 -426h-395l-48 -273l52 -51h108l51 51l21 117h184l-31 -170l-135 -135h-309zM303 834l-43 -246h211l43 246l-51 51h-107zM365 1102l18 102l141 142h103l-19 -103l-141 -141h-102z" />
<glyph unicode="&#xea;" horiz-adv-x="743" d="M244 1112l14 90l131 131h150l129 -131l-17 -90h-61l-127 127h-8l-127 -127h-84zM131 0l-135 135l135 752l133 133h309l136 -133l-76 -426h-395l-48 -273l52 -51h108l51 51l21 117h184l-31 -170l-135 -135h-309zM303 834l-43 -246h211l43 246l-51 51h-107z" />
<glyph unicode="&#xeb;" horiz-adv-x="743" d="M246 1126l30 181h138l-31 -181h-137zM506 1126l33 181h137l-31 -181h-139zM131 0l-135 135l135 752l133 133h309l136 -133l-76 -426h-395l-48 -273l52 -51h108l51 51l21 117h184l-31 -170l-135 -135h-309zM303 834l-43 -246h211l43 246l-51 51h-107z" />
<glyph unicode="&#xec;" horiz-adv-x="393" d="M76 0l-82 82l166 938h184l-154 -875l9 -8h61l-24 -137h-160zM272 1102l-141 141l19 103h77l142 -142l-19 -102h-78z" />
<glyph unicode="&#xed;" horiz-adv-x="393" d="M76 0l-82 82l166 938h184l-154 -875l9 -8h61l-24 -137h-160zM193 1102l18 102l141 142h103l-19 -103l-141 -141h-102z" />
<glyph unicode="&#xee;" horiz-adv-x="393" d="M72 1112l14 90l131 131h150l129 -131l-17 -90h-61l-127 127h-8l-127 -127h-84zM76 0l-82 82l166 938h184l-154 -875l9 -8h61l-24 -137h-160z" />
<glyph unicode="&#xef;" horiz-adv-x="393" d="M76 1126l30 181h138l-31 -181h-137zM336 1126l33 181h137l-31 -181h-139zM76 0l-82 82l166 938h184l-154 -875l9 -8h61l-24 -137h-160z" />
<glyph unicode="&#xf0;" d="M131 0l-135 135l133 752l133 133h178l103 -102l35 198l-252 252l4 45h174l209 -211l104 105h49l-28 -162l-88 -88l-162 -922l-135 -135h-322zM362 137l52 51l106 603l-94 94h-70l-53 -51l-115 -646l54 -51h120z" />
<glyph unicode="&#xf1;" horiz-adv-x="761" d="M-27 0l181 1020h133l-11 -137l140 137h149l142 -139l-132 -736l9 -8h63l-24 -137h-158l-84 82l129 735l-49 49h-43l-131 -131l-129 -735h-185zM219 1122l21 115l82 82h116l97 -96h22l29 28l10 68h109l-21 -117l-80 -80h-117l-96 97h-22l-27 -27l-14 -70h-109z" />
<glyph unicode="&#xf2;" d="M131 0l-135 135l133 752l135 133h324l133 -133l-133 -752l-133 -135h-324zM242 137h120l52 51l114 646l-53 51h-121l-51 -51l-115 -646zM449 1102l-142 141l19 103h77l142 -142l-19 -102h-77z" />
<glyph unicode="&#xf3;" d="M131 0l-135 135l133 752l135 133h324l133 -133l-133 -752l-133 -135h-324zM242 137h120l52 51l114 646l-53 51h-121l-51 -51l-115 -646zM369 1102l18 102l141 142h103l-19 -103l-141 -141h-102z" />
<glyph unicode="&#xf4;" d="M248 1112l14 90l131 131h150l129 -131l-17 -90h-61l-127 127h-8l-127 -127h-84zM131 0l-135 135l133 752l135 133h324l133 -133l-133 -752l-133 -135h-324zM242 137h120l52 51l114 646l-53 51h-121l-51 -51l-115 -646z" />
<glyph unicode="&#xf5;" d="M131 0l-135 135l133 752l135 133h324l133 -133l-133 -752l-133 -135h-324zM242 137h120l52 51l114 646l-53 51h-121l-51 -51l-115 -646zM223 1122l21 115l82 82h116l97 -96h22l29 28l10 68h109l-21 -117l-80 -80h-116l-97 97h-22l-27 -27l-14 -70h-109z" />
<glyph unicode="&#xf6;" d="M252 1126l31 181h137l-31 -181h-137zM512 1126l33 181h137l-31 -181h-139zM131 0l-135 135l133 752l135 133h324l133 -133l-133 -752l-133 -135h-324zM242 137h120l52 51l114 646l-53 51h-121l-51 -51l-115 -646z" />
<glyph unicode="&#xf7;" horiz-adv-x="681" d="M213 336l33 174h155l-30 -174h-158zM59 625l27 161h571l-28 -161h-570zM313 899l31 174h158l-33 -174h-156z" />
<glyph unicode="&#xf8;" d="M131 0l-135 135l133 752l133 133h324l135 -135l-133 -752l-133 -133h-324zM180 180l307 713h-139l-51 -51zM229 129h140l51 51l117 660z" />
<glyph unicode="&#xf9;" horiz-adv-x="749" d="M483 0l-94 94l4 27l-121 -121h-135l-141 141l156 879h184l-143 -815l49 -49h30l138 137l129 727h184l-154 -875l11 -8h61l-25 -137h-133zM453 1102l-142 141l19 103h78l141 -142l-19 -102h-77z" />
<glyph unicode="&#xfa;" horiz-adv-x="749" d="M483 0l-94 94l4 27l-121 -121h-135l-141 141l156 879h184l-143 -815l49 -49h30l138 137l129 727h184l-154 -875l11 -8h61l-25 -137h-133zM373 1102l18 102l141 142h103l-19 -103l-141 -141h-102z" />
<glyph unicode="&#xfb;" horiz-adv-x="749" d="M252 1112l14 90l131 131h150l129 -131l-17 -90h-61l-127 127h-8l-127 -127h-84zM483 0l-94 94l4 27l-121 -121h-135l-141 141l156 879h184l-143 -815l49 -49h30l138 137l129 727h184l-154 -875l11 -8h61l-25 -137h-133z" />
<glyph unicode="&#xfc;" horiz-adv-x="749" d="M254 1126l31 181h137l-31 -181h-137zM514 1126l33 181h137l-31 -181h-139zM483 0l-94 94l4 27l-121 -121h-135l-141 141l156 879h184l-143 -815l49 -49h30l138 137l129 727h184l-154 -875l11 -8h61l-25 -137h-133z" />
<glyph unicode="&#xfd;" horiz-adv-x="688" d="M86 0v1020h184l-20 -903l301 903h176l-428 -1227l-141 -141h-279l27 147h176l74 74l43 127h-113zM342 1102l18 102l142 142h102l-18 -103l-142 -141h-102z" />
<glyph unicode="&#xfe;" d="M-86 -348l311 1761h185l-93 -520l127 127h146l133 -133l-131 -752l-135 -135h-185l-96 94l-78 -442h-184zM434 877l-145 -144l-90 -508l90 -88h76l51 51l112 637l-51 52h-43z" />
<glyph unicode="&#xff;" horiz-adv-x="688" d="M86 0v1020h184l-20 -903l301 903h176l-428 -1227l-141 -141h-279l27 147h176l74 74l43 127h-113zM225 1126l31 181h137l-31 -181h-137zM485 1126l33 181h137l-30 -181h-140z" />
<glyph unicode="&#x152;" horiz-adv-x="1150" d="M168 0l-156 156l195 1101l155 156h865l-31 -168h-348l-80 -444h322l-31 -170h-320l-82 -463h355l-29 -168h-815zM274 162h191l192 1091h-211l-57 -59l-172 -975z" />
<glyph unicode="&#x153;" horiz-adv-x="1150" d="M131 0l-135 135l133 752l135 133h275l82 -84l86 84h274l133 -133l-74 -426h-397l-47 -273l53 -51h107l51 51l22 117h183l-31 -170l-133 -135h-266l-88 88l-88 -88h-275zM242 137h120l52 51l114 646l-53 51h-121l-51 -51l-115 -646zM711 834l-45 -246h213l43 246l-54 51 h-106z" />
<glyph unicode="&#x178;" d="M176 0l82 451l-106 962h190l55 -723l314 723h184l-446 -962l-80 -451h-193zM344 1524l31 180h137l-31 -180h-137zM604 1524l33 180h137l-31 -180h-139z" />
<glyph unicode="&#x2c6;" horiz-adv-x="659" d="M186 1112l15 90l131 131h149l129 -131l-16 -90h-62l-126 127h-9l-127 -127h-84z" />
<glyph unicode="&#x2dc;" horiz-adv-x="659" d="M168 1122l20 115l82 82h117l96 -96h23l29 28l10 68h108l-20 -117l-80 -80h-117l-96 97h-23l-26 -27l-15 -70h-108z" />
<glyph unicode="&#x2000;" horiz-adv-x="876" />
<glyph unicode="&#x2001;" horiz-adv-x="1755" />
<glyph unicode="&#x2002;" horiz-adv-x="876" />
<glyph unicode="&#x2003;" horiz-adv-x="1755" />
<glyph unicode="&#x2004;" horiz-adv-x="583" />
<glyph unicode="&#x2005;" horiz-adv-x="438" />
<glyph unicode="&#x2006;" horiz-adv-x="290" />
<glyph unicode="&#x2007;" horiz-adv-x="290" />
<glyph unicode="&#x2008;" horiz-adv-x="219" />
<glyph unicode="&#x2009;" horiz-adv-x="350" />
<glyph unicode="&#x200a;" horiz-adv-x="96" />
<glyph unicode="&#x2010;" horiz-adv-x="434" d="M37 623l31 168h362l-31 -168h-362z" />
<glyph unicode="&#x2011;" horiz-adv-x="434" d="M37 623l31 168h362l-31 -168h-362z" />
<glyph unicode="&#x2012;" horiz-adv-x="434" d="M37 623l31 168h362l-31 -168h-362z" />
<glyph unicode="&#x2013;" horiz-adv-x="593" d="M37 623l31 168h520l-29 -168h-522z" />
<glyph unicode="&#x2014;" horiz-adv-x="804" d="M37 623l31 168h733l-31 -168h-733z" />
<glyph unicode="&#x2018;" horiz-adv-x="292" d="M104 971l66 362l78 80h141l-16 -92h-66l-22 -21l-17 -90h84l-41 -239h-207z" />
<glyph unicode="&#x2019;" horiz-adv-x="292" d="M104 971l17 90h65l23 22l16 91h-84l43 239h205l-63 -364l-80 -78h-142z" />
<glyph unicode="&#x201a;" horiz-adv-x="292" d="M-102 -203l14 90h68l20 23l16 90h-84l43 240h207l-65 -365l-80 -78h-139z" />
<glyph unicode="&#x201c;" horiz-adv-x="583" d="M104 971l64 362l80 80h141l-16 -92h-68l-20 -21l-17 -90h84l-43 -239h-205zM395 971l66 362l78 80h141l-16 -92h-66l-23 -21l-16 -90h84l-41 -239h-207z" />
<glyph unicode="&#x201d;" horiz-adv-x="583" d="M104 971l15 90h67l21 22l16 91h-84l43 239h207l-65 -364l-78 -78h-142zM395 971l17 90h65l23 22l16 91h-84l43 239h205l-64 -364l-79 -78h-142z" />
<glyph unicode="&#x201e;" horiz-adv-x="583" d="M-104 -203l16 90h65l23 23l16 90h-84l43 240h205l-63 -365l-80 -78h-141zM188 -203l15 90h67l21 23l16 90h-84l43 240h207l-65 -365l-80 -78h-140z" />
<glyph unicode="&#x2022;" horiz-adv-x="432" d="M139 522l-88 88l35 189l88 88h164l88 -88l-35 -189l-88 -88h-164z" />
<glyph unicode="&#x2026;" horiz-adv-x="970" d="M-39 0l43 248h205l-45 -248h-203zM285 0l43 248h204l-45 -248h-202zM608 0l43 248h205l-45 -248h-203z" />
<glyph unicode="&#x202f;" horiz-adv-x="350" />
<glyph unicode="&#x2039;" horiz-adv-x="393" d="M160 307l-121 408l262 407h164l-268 -415l118 -400h-155z" />
<glyph unicode="&#x203a;" horiz-adv-x="393" d="M270 1122l121 -405l-262 -410h-164l268 416l-118 399h155z" />
<glyph unicode="&#x205f;" horiz-adv-x="438" />
<glyph unicode="&#x20ac;" horiz-adv-x="792" d="M51 774l21 117h75l66 366l154 156h319l156 -156l-43 -245h-193l31 182l-57 59h-127l-60 -59l-55 -303h342l-23 -117h-340l-20 -123h340l-23 -116h-338l-55 -316l60 -57h127l57 57l33 187h192l-43 -250l-155 -156h-320l-156 156l68 379h-76l21 116h75l21 123h-74z" />
<glyph unicode="&#x2122;" horiz-adv-x="968" d="M436 825l105 588h153l-10 -467l154 467h151l-104 -588h-92l88 496l-172 -496h-103l6 494l-88 -494h-88zM184 1327l15 86h307l-14 -86h-105l-88 -502h-100l88 502h-103z" />
<glyph unicode="&#xe000;" horiz-adv-x="1020" d="M0 1020h1020v-1020h-1020v1020z" />
<glyph unicode="&#xfb01;" horiz-adv-x="915" d="M61 872l27 148h109l47 258l135 135h283l-27 -147h-166l-53 -52l-35 -194h186l-24 -148h-189l-153 -872h-185l156 872h-111zM600 0l-82 82l166 938h184l-153 -875l8 -8h61l-24 -137h-160zM713 1176l39 221h184l-39 -221h-184z" />
<glyph unicode="&#xfb02;" horiz-adv-x="921" d="M61 872l27 148h109l47 258l135 135h283l-27 -147h-166l-53 -52l-35 -194h186l-24 -148h-189l-153 -872h-185l156 872h-111zM600 0l-82 82l236 1331h186l-225 -1268l10 -8h59l-24 -137h-160z" />
<glyph unicode="&#xfb03;" horiz-adv-x="1441" d="M1125 0l-82 82l166 938h184l-154 -875l9 -8h61l-24 -137h-160zM1237 1176l39 221h185l-39 -221h-185zM585 872l27 148h109l47 258l135 135h283l-27 -147h-166l-53 -52l-35 -194h186l-24 -148h-189l-153 -872h-185l156 872h-111zM61 872l27 148h109l47 258l135 135h283 l-27 -147h-166l-53 -52l-35 -194h186l-24 -148h-189l-153 -872h-185l156 872h-111z" />
<glyph unicode="&#xfb04;" horiz-adv-x="1445" d="M1125 0l-82 82l235 1331h187l-226 -1268l11 -8h59l-24 -137h-160zM585 872l27 148h109l47 258l135 135h283l-27 -147h-166l-53 -52l-35 -194h186l-24 -148h-189l-153 -872h-185l156 872h-111zM61 872l27 148h109l47 258l135 135h283l-27 -147h-166l-53 -52l-35 -194h186 l-24 -148h-189l-153 -872h-185l156 872h-111z" />
</font>
</defs>
</svg>
